<svg xmlns="http://www.w3.org/2000/svg" xmlns:xlink="http://www.w3.org/1999/xlink" width="2000" zoomAndPan="magnify" viewBox="0 0 1500 1499.999933" height="2000" preserveAspectRatio="xMidYMid meet" version="1.0"><defs><clipPath id="803100f26f"><path d="M 0 0 L 1499.371094 0 L 1499.371094 1499.371094 L 0 1499.371094 Z M 0 0 " clip-rule="nonzero"/></clipPath></defs><rect x="-150" width="1800" fill="#ffffff" y="-149.999993" height="1799.99992" fill-opacity="1"/><rect x="-150" width="1800" fill="#ffffff" y="-149.999993" height="1799.99992" fill-opacity="1"/><g clip-path="url(#803100f26f)"><path fill="#000000" d="M 609.164062 0 C 269.113281 3.765625 -3.765625 282.714844 0 622.976562 C 3.765625 963.03125 282.503906 1235.910156 622.769531 1232.144531 C 748.535156 1230.679688 870.746094 1190.917969 973.074219 1118.09375 L 1325.054688 1469.867188 C 1365.234375 1509.625 1430.316406 1509.207031 1470.074219 1468.820312 C 1509.417969 1429.058594 1509.417969 1364.816406 1470.074219 1324.847656 L 1118.09375 973.074219 C 1315.21875 695.800781 1250.347656 311.175781 973.074219 114.046875 C 866.976562 38.503906 739.535156 -1.464844 609.164062 0 Z M 601.839844 106.722656 C 882.882812 98.773438 1117.046875 320.171875 1124.789062 601.214844 C 1125 606.234375 1125 611.050781 1125 616.070312 C 1125.210938 897.113281 897.320312 1125 616.28125 1125.210938 C 335.238281 1125.210938 107.351562 897.53125 107.144531 616.488281 C 107.144531 616.28125 107.144531 616.28125 107.144531 616.070312 C 106.722656 340.261719 326.242188 114.46875 601.839844 106.722656 " fill-opacity="1" fill-rule="nonzero"/></g><path fill="#000000" d="M 478.792969 238.558594 C 506.625 228.726562 537.179688 243.164062 547.222656 270.996094 C 557.058594 298.617188 542.828125 329.171875 515.414062 339.214844 C 399.066406 381.695312 321.429688 492.1875 321.429688 616.070312 C 321.429688 645.578125 297.574219 669.644531 267.855469 669.644531 C 238.351562 669.644531 214.285156 645.578125 214.285156 616.070312 C 214.285156 447.195312 319.964844 296.316406 478.792969 238.558594 " fill-opacity="1" fill-rule="nonzero"/></svg>